<?xml version="1.0" encoding="UTF-8" standalone="no"?>
<!DOCTYPE svg PUBLIC "-//W3C//DTD SVG 1.1//EN" "http://www.w3.org/Graphics/SVG/1.1/DTD/svg11.dtd">
<svg version="1.1" xmlns="http://www.w3.org/2000/svg" xmlns:xlink="http://www.w3.org/1999/xlink" preserveAspectRatio="xMidYMid meet" viewBox="0 0 128 128" width="128" height="128"><defs><path d="M74.38 0.84L76.89 1.3L79.37 1.86L81.82 2.52L84.22 3.27L86.58 4.1L88.9 5.03L91.18 6.05L93.4 7.15L95.58 8.33L97.7 9.59L99.77 10.94L101.79 12.36L103.74 13.85L105.64 15.41L107.48 17.05L109.25 18.75L110.95 20.52L112.59 22.36L114.15 24.26L115.64 26.21L117.06 28.23L118.41 30.3L119.67 32.42L120.85 34.6L121.95 36.82L122.97 39.1L123.9 41.42L124.73 43.78L125.48 46.18L126.14 48.63L126.7 51.11L127.16 53.62L127.53 56.17L127.79 58.75L127.95 61.36L128 64L127.95 66.64L127.79 69.25L127.53 71.83L127.16 74.38L126.7 76.89L126.14 79.37L125.48 81.82L124.73 84.22L123.9 86.58L122.97 88.9L121.95 91.18L120.85 93.4L119.67 95.58L118.41 97.7L117.06 99.77L115.64 101.79L114.15 103.74L112.59 105.64L110.95 107.48L109.25 109.25L107.48 110.95L105.64 112.59L103.74 114.15L101.79 115.64L99.77 117.06L97.7 118.41L95.58 119.67L93.4 120.85L91.18 121.95L88.9 122.97L86.58 123.9L84.22 124.73L81.82 125.48L79.37 126.14L76.89 126.7L74.38 127.16L71.83 127.53L69.25 127.79L66.64 127.95L64 128L61.36 127.95L58.75 127.79L56.17 127.53L53.62 127.16L51.11 126.7L48.63 126.14L46.18 125.48L43.78 124.73L41.42 123.9L39.1 122.97L36.82 121.95L34.6 120.85L32.42 119.67L30.3 118.41L28.23 117.06L26.21 115.64L24.26 114.15L22.36 112.59L20.52 110.95L18.75 109.25L17.05 107.48L15.41 105.64L13.85 103.74L12.36 101.79L10.94 99.77L9.59 97.7L8.33 95.58L7.15 93.4L6.05 91.18L5.03 88.9L4.1 86.58L3.27 84.22L2.52 81.82L1.86 79.37L1.3 76.89L0.84 74.38L0.47 71.83L0.21 69.25L0.05 66.64L0 64L0.05 61.36L0.21 58.75L0.47 56.17L0.84 53.62L1.3 51.11L1.86 48.63L2.52 46.18L3.27 43.78L4.1 41.42L5.03 39.1L6.05 36.82L7.15 34.6L8.33 32.42L9.59 30.3L10.94 28.23L12.36 26.21L13.85 24.26L15.41 22.36L17.05 20.52L18.75 18.75L20.52 17.05L22.36 15.41L24.26 13.85L26.21 12.36L28.23 10.94L30.3 9.59L32.42 8.33L34.6 7.15L36.82 6.05L39.1 5.03L41.42 4.1L43.78 3.27L46.18 2.52L48.63 1.86L51.11 1.3L53.62 0.84L56.17 0.47L58.75 0.21L61.36 0.05L64 0L66.64 0.05L69.25 0.21L71.83 0.47L71.83 0.47L74.38 0.84ZM94 91L81 91L81 104L94 104L94 104L94 91ZM47 70.5L74 70.5L74 57.5L47 57.5L47 37L74 37L74 24L34 24L34 104L47 104L47 104L47 70.5ZM94 24L81 24L81 84L94 84L94 84L94 24Z" id="f10TK3568n"></path></defs><g><g><g><use xlink:href="#f10TK3568n" opacity="1" fill="#ba6363" fill-opacity="1"></use></g></g></g></svg>